<mxfile host="app.diagrams.net" modified="2022-08-21T00:40:56.061Z" agent="5.0 (Macintosh; Intel Mac OS X 10_15_7) AppleWebKit/605.1.15 (KHTML, like Gecko) Version/15.6 Safari/605.1.15" etag="PxS754vWO5_lE8eHoE7G" version="20.2.5" type="github">
  <diagram id="L_tbHWIZJCU_lMFcFt1y" name="Page-1">
    <mxGraphModel dx="1105" dy="597" grid="1" gridSize="10" guides="1" tooltips="1" connect="1" arrows="1" fold="1" page="1" pageScale="1" pageWidth="827" pageHeight="1169" math="0" shadow="0">
      <root>
        <mxCell id="0" />
        <mxCell id="1" parent="0" />
        <mxCell id="jJyg74rMVHNqJNfh-BaO-1" value="Inicio" style="strokeWidth=2;html=1;shape=mxgraph.flowchart.terminator;whiteSpace=wrap;" vertex="1" parent="1">
          <mxGeometry x="200" y="90" width="100" height="40" as="geometry" />
        </mxCell>
        <mxCell id="jJyg74rMVHNqJNfh-BaO-2" value="base, altura" style="shape=parallelogram;html=1;strokeWidth=2;perimeter=parallelogramPerimeter;whiteSpace=wrap;rounded=1;arcSize=12;size=0.23;" vertex="1" parent="1">
          <mxGeometry x="180" y="155" width="140" height="35" as="geometry" />
        </mxCell>
        <mxCell id="jJyg74rMVHNqJNfh-BaO-3" value="perimetro, altura" style="strokeWidth=2;html=1;shape=mxgraph.flowchart.document2;whiteSpace=wrap;size=0.25;" vertex="1" parent="1">
          <mxGeometry x="200" y="300" width="100" height="50" as="geometry" />
        </mxCell>
        <mxCell id="jJyg74rMVHNqJNfh-BaO-4" value="Fin" style="strokeWidth=2;html=1;shape=mxgraph.flowchart.terminator;whiteSpace=wrap;" vertex="1" parent="1">
          <mxGeometry x="200" y="380" width="100" height="40" as="geometry" />
        </mxCell>
        <mxCell id="jJyg74rMVHNqJNfh-BaO-5" value="" style="endArrow=classic;html=1;rounded=0;exitX=0.5;exitY=1;exitDx=0;exitDy=0;exitPerimeter=0;entryX=0.5;entryY=0;entryDx=0;entryDy=0;" edge="1" parent="1" source="jJyg74rMVHNqJNfh-BaO-1" target="jJyg74rMVHNqJNfh-BaO-2">
          <mxGeometry width="50" height="50" relative="1" as="geometry">
            <mxPoint x="226" y="360" as="sourcePoint" />
            <mxPoint x="276" y="310" as="targetPoint" />
          </mxGeometry>
        </mxCell>
        <mxCell id="jJyg74rMVHNqJNfh-BaO-6" value="" style="endArrow=classic;html=1;rounded=0;exitX=0.5;exitY=1;exitDx=0;exitDy=0;entryX=0.5;entryY=0;entryDx=0;entryDy=0;" edge="1" parent="1" source="jJyg74rMVHNqJNfh-BaO-2" target="jJyg74rMVHNqJNfh-BaO-10">
          <mxGeometry width="50" height="50" relative="1" as="geometry">
            <mxPoint x="396" y="220" as="sourcePoint" />
            <mxPoint x="250" y="240" as="targetPoint" />
          </mxGeometry>
        </mxCell>
        <mxCell id="jJyg74rMVHNqJNfh-BaO-7" value="" style="endArrow=classic;html=1;rounded=0;entryX=0.5;entryY=0;entryDx=0;entryDy=0;entryPerimeter=0;" edge="1" parent="1" source="jJyg74rMVHNqJNfh-BaO-3" target="jJyg74rMVHNqJNfh-BaO-4">
          <mxGeometry width="50" height="50" relative="1" as="geometry">
            <mxPoint x="226" y="600" as="sourcePoint" />
            <mxPoint x="256" y="420" as="targetPoint" />
          </mxGeometry>
        </mxCell>
        <mxCell id="jJyg74rMVHNqJNfh-BaO-8" value="&lt;meta charset=&quot;utf-8&quot;&gt;&lt;div style=&quot;font-style: normal; font-variant-caps: normal; font-weight: normal; letter-spacing: normal; text-align: start; text-indent: 0px; text-transform: none; word-spacing: 0px; -webkit-text-stroke-width: 0px; text-decoration: none; color: rgb(171, 178, 191); background-color: rgb(40, 44, 52); font-family: &amp;quot;Fira Code&amp;quot;, &amp;quot;Menlo for Powerline&amp;quot;, Menlo, Monaco, &amp;quot;Courier New&amp;quot;, monospace; font-size: 12px; line-height: 18px;&quot;&gt;&lt;div&gt;&lt;span style=&quot;color: rgb(127, 132, 142); font-style: italic;&quot;&gt;DeclaraciÃ³n de variables e ingrese de datos&lt;/span&gt;&lt;/div&gt;&lt;/div&gt;" style="text;whiteSpace=wrap;html=1;" vertex="1" parent="1">
          <mxGeometry x="360" y="152.5" width="340" height="40" as="geometry" />
        </mxCell>
        <mxCell id="jJyg74rMVHNqJNfh-BaO-9" value="&lt;div style=&quot;font-style: normal; font-variant-caps: normal; font-weight: normal; letter-spacing: normal; text-align: start; text-indent: 0px; text-transform: none; word-spacing: 0px; -webkit-text-stroke-width: 0px; text-decoration: none; color: rgb(171, 178, 191); background-color: rgb(40, 44, 52); font-family: &amp;quot;Fira Code&amp;quot;, &amp;quot;Menlo for Powerline&amp;quot;, Menlo, Monaco, &amp;quot;Courier New&amp;quot;, monospace; font-size: 12px; line-height: 18px;&quot;&gt;&lt;div&gt;&lt;span style=&quot;color: rgb(127, 132, 142); font-style: italic;&quot;&gt;Mostrar resultados al usuario&lt;/span&gt;&lt;/div&gt;&lt;/div&gt;" style="text;whiteSpace=wrap;html=1;" vertex="1" parent="1">
          <mxGeometry x="360" y="305" width="240" height="40" as="geometry" />
        </mxCell>
        <mxCell id="jJyg74rMVHNqJNfh-BaO-12" style="edgeStyle=orthogonalEdgeStyle;rounded=0;orthogonalLoop=1;jettySize=auto;html=1;exitX=0.5;exitY=1;exitDx=0;exitDy=0;entryX=0.5;entryY=0;entryDx=0;entryDy=0;entryPerimeter=0;" edge="1" parent="1" source="jJyg74rMVHNqJNfh-BaO-10" target="jJyg74rMVHNqJNfh-BaO-3">
          <mxGeometry relative="1" as="geometry" />
        </mxCell>
        <mxCell id="jJyg74rMVHNqJNfh-BaO-10" value="perimetro = &amp;nbsp;2*(base+altura)&lt;br&gt;area = base*altura" style="rounded=1;whiteSpace=wrap;html=1;absoluteArcSize=1;arcSize=14;strokeWidth=2;" vertex="1" parent="1">
          <mxGeometry x="165" y="220" width="170" height="50" as="geometry" />
        </mxCell>
        <mxCell id="jJyg74rMVHNqJNfh-BaO-13" value="&lt;div style=&quot;font-style: normal; font-variant-caps: normal; font-weight: normal; letter-spacing: normal; text-align: start; text-indent: 0px; text-transform: none; word-spacing: 0px; -webkit-text-stroke-width: 0px; text-decoration: none; color: rgb(171, 178, 191); background-color: rgb(40, 44, 52); font-family: &amp;quot;Fira Code&amp;quot;, &amp;quot;Menlo for Powerline&amp;quot;, Menlo, Monaco, &amp;quot;Courier New&amp;quot;, monospace; font-size: 12px; line-height: 18px;&quot;&gt;&lt;div&gt;&lt;span style=&quot;color: rgb(127, 132, 142); font-style: italic;&quot;&gt;Desarrollo de operaciones&lt;/span&gt;&lt;/div&gt;&lt;/div&gt;" style="text;whiteSpace=wrap;html=1;" vertex="1" parent="1">
          <mxGeometry x="360" y="225" width="210" height="40" as="geometry" />
        </mxCell>
      </root>
    </mxGraphModel>
  </diagram>
</mxfile>
